<svg id="Layer_1" data-name="Layer 1" xmlns="http://www.w3.org/2000/svg" style="fill: currentColor" viewBox="0 0 430 468.39"><path d="M228.58,53.19V206.55a27,27,0,0,0,27,27h.9a27,27,0,0,0,27-27V53.19a27,27,0,0,0-27-27h-.89A27,27,0,0,0,228.58,53.19ZM200.06,72A215.15,215.15,0,0,0,42.85,308.23c12.41,96.2,88.72,172.34,184.94,184.58C359.11,509.51,471,407.62,471,279.61c0-98.35-66-181.26-156.16-206.85a2.29,2.29,0,0,0-2.9,2.2v45.88a2.28,2.28,0,0,0,1.5,2.13A166.88,166.88,0,0,1,422.79,278.24c.75,93.13-75.94,169.39-169.07,168.14A166.82,166.82,0,0,1,198.56,123a2.28,2.28,0,0,0,1.5-2.14V72ZM243,215" transform="translate(-41 -26.21)"/></svg>